<svg height="256" viewBox="0 0 512 512" width="256" xmlns="http://www.w3.org/2000/svg"><g fill="#001a43"><path d="m259.119 460.031c0 13.406-10.875 24.266-24.266 24.266h-51.031c-13.406 0-24.266-10.859-24.266-24.266v-11.203c0-13.406 10.859-24.266 24.266-24.266h51.031c13.391 0 24.266 10.859 24.266 24.266z"/><path d="m36.9 365.688h-4.266c-13.391 0-24.266 10.875-24.266 24.266v33.516c0 13.406 6.25 24.281 16.953 24.281h2.672c11.578 0 8.906 10.859 8.906 24.266v15.719c.001 13.389 10.876 24.264 24.267 24.264h37.094c13.406 0 24.266-10.875 24.266-24.266v-39.984-57.797c0-13.391-10.859-24.266-24.266-24.266h-61.36z"/><path d="m338.322 161.438c-11.422 0-21.297 7.969-23.703 19.125l-13.563 62.531c-2.406 11.156-12.297 19.125-23.719 19.125h-151.952c-13.391 0-24.266 10.875-24.266 24.266v18.375c0 13.391 10.875 24.266 24.266 24.266h4.984c13.391 0 24.266 10.875 24.266 24.281v12.078c0 13.391 10.875 24.266 24.266 24.266h188.125c11.391 0 21.25-7.938 23.703-19.094l39.313-179.781c1.578-7.156-.188-14.656-4.797-20.375-4.609-5.75-11.563-9.063-18.922-9.063z"/><path d="m487.947 108.75c-2.188 11.422-12.172 19.688-23.844 19.688h-105.515c-7.234 0-14.109-3.203-18.688-8.781-4.625-5.594-6.516-12.938-5.156-20.031l15.25-79.906c2.188-11.439 12.188-19.72 23.844-19.72h105.531c7.234 0 14.078 3.219 18.688 8.813 4.625 5.578 6.5 12.922 5.141 20.031z"/></g></svg>