<svg enable-background="new 0 0 490.6 382.4" viewBox="0 0 490.6 382.4" xmlns="http://www.w3.org/2000/svg"><path d="m82.3 291.3c21 21.9 46.7 40.9 78.3 54.5l8.7 3.7v21.3c3 1.1 7.1 2.5 12 3.9 13.9 3.8 35.2 7.7 64 7.7 39.1 0 64.4-7.2 76-11.5v-21.3l8.7-3.7c47.4-20.4 81.7-52.9 106.3-89.3s39.3-76.6 47.1-110.9c5.2-22.9 7.2-43.2 7.2-57.6 0-4.6-1.1-9.1-3.7-14-2.5-4.9-6.5-10.1-12.1-15.3-11.2-10.5-28.8-20.9-51.2-29.7-44.6-17.8-108.2-29.1-178.3-29.1-46 0-89.2 4.9-126.1 13.2-36.9 8.4-67.5 20.3-88.1 33.8-13.9 8.9-23.1 18.5-27.4 27-2.5 4.8-3.6 9.2-3.7 13.6v.4c0 21.7 4.7 56.4 17.4 93.6s33.5 76.8 64.9 109.7zm343.9-154.3c-8.8 5-19.8 9.7-32.4 14-12.6 4.2-26.9 7.9-42.4 10.9-10.1 2-20.9 3.7-32.1 5.1-7-13.4-14.7-25.8-23.1-37.1 6.7-.8 16-1.7 27-2.6 14.1-1 31-1.9 49.1-1.9 21 0 43.5 1.3 64.8 4.5-3.2 2.3-6.8 4.8-10.9 7.1zm15.7-50.3c3.6 3.2 6.2 6.3 8 9.3 2.2 3.7 3.1 7 3.1 10.3 0 2.5-.5 4.9-1.7 7.6-26-4.9-53.6-6.6-79-6.6-18.6 0-36 .8-50.4 2-19.5 1.4-33.7 3.3-38.6 4-7.9-9.4-16.1-18.1-24.4-25.9 15.3-2.9 39.7-6.7 68.5-8.4 9.6-.5 19.7-.9 30.1-.9 26.9-.1 56 2.3 84.4 8.6zm-196.6-45.6c21.5 0 42.2 1.1 61.7 3.1 32.6 3.4 61.7 9.3 85.2 17.1-11.9-.9-23.6-1.3-34.9-1.3-10.8 0-21.3.4-31.2 1-40.4 2.3-72.1 8.7-84 11.3-13.9-11.8-27.4-21.5-39.7-29.7 13.9-1 28.3-1.5 42.9-1.5zm-71.9 4.3c34.5 21.1 90.9 59.4 126.7 123.7-14.6 1.3-29.7 2.1-45.4 2.4-31.5-56.9-77.3-96.7-112.5-121.2 9.9-1.9 20.3-3.6 31.2-4.9zm-55.6 10.2c32.9 20.9 82.3 59.3 116.2 115.8-17.9-.3-35.3-1.4-51.7-3.1-30.3-46.2-69.3-79.4-100.1-101 10.4-4.3 22.3-8.2 35.6-11.7zm-77 40.4c3.7-6.3 11.3-13.2 22.6-19.7 27.7 18.4 64.7 47.8 94.7 88.8-23.8-3.7-45.1-8.7-63.1-14.9-18.9-6.5-33.9-14.2-43.6-22.1-4.9-3.9-8.4-7.9-10.6-11.6s-3.1-7-3.1-10.3c0-3.2.9-6.5 3.1-10.2z" fill="#001a43"/></svg>