<svg enable-background="new 0 0 501.5 407.4" viewBox="0 0 501.5 407.4" xmlns="http://www.w3.org/2000/svg"><g fill="#fff"><path d="m495.1 81.8c-7.1-13.5-18.9-24.8-34.1-34.6-22.7-14.7-53.3-26.3-89.2-34.5-35.8-8.1-77.1-12.7-121.1-12.7-67 0-127.8 10.6-172.8 28.3-22.6 8.9-41.3 19.6-55.1 32.4-6.9 6.4-12.5 13.4-16.5 21.1s-6.3 16.2-6.3 24.9v13.1h.5c.9 13.2 3 28.6 6.8 45.4 7.7 34.1 22.2 73.7 46.9 110.4 23.4 34.6 56.2 66.5 100.7 87.5v24l6.8 3.7c1.6.9 31.4 16.7 89 16.6 57.5 0 87.4-15.8 89-16.6l6.8-3.7v-24.1c28.8-13.6 52.8-31.7 72.4-52.2 32.1-33.6 52.6-73.3 65.2-110.1 12.6-36.9 17.3-70.8 17.4-94.1 0-8.6-2.3-17.1-6.4-24.8zm-26.5 77.7c-7.1 31.5-20.6 68.2-43.1 101.5s-53.9 63.1-97.3 81.7l-7.9 3.4v24.7c-10.7 3.9-33.8 10.5-69.6 10.5-26.4 0-45.9-3.6-58.6-7.1-4.5-1.2-8.2-2.5-11-3.5v-24.7l-8-3.4c-29-12.4-52.5-29.8-71.7-49.9-28.7-30-47.6-66.3-59.2-100.3-11.7-34-16-65.8-15.9-85.6v-.3c.1-4.1 1.1-8.1 3.3-12.5 4-7.8 12.4-16.5 25.1-24.7 18.9-12.3 47-23.3 80.7-30.9 33.8-7.6 73.2-12.1 115.4-12.1 64.2 0 122.3 10.3 163.2 26.5 20.4 8 36.5 17.5 46.8 27.2 5.1 4.8 8.8 9.5 11.1 14s3.3 8.6 3.3 12.8c0 13.1-1.9 31.7-6.6 52.7z"/><path d="m411.9 83.1c-17.7-10-41.6-17.9-69.9-23.5s-60.8-8.7-95.6-8.7c-52.9 0-100.8 7.3-136.1 19.4-17.6 6.1-32.2 13.3-42.9 21.9-5.3 4.3-9.7 9-12.8 14.2s-5 11-4.9 17.1c0 6 1.8 11.9 4.9 17.1 5.5 9.1 14.6 16.7 26.4 23.3 17.7 9.9 41.6 17.9 69.9 23.4 28.3 5.6 60.8 8.7 95.6 8.7 52.9 0 100.8-7.3 136.1-19.4 17.7-6.1 32.2-13.3 42.9-21.9 5.3-4.3 9.7-9 12.8-14.2s5-11 4.9-17.1c0-6-1.8-11.9-4.9-17.1-5.5-9-14.6-16.5-26.4-23.2zm-165.4-16.4c50 0 95.3 6.8 128.2 17.6-10.4-.8-20.6-1.1-30.4-1.1-47.9 0-87.5 7.9-100.5 10.7-12.1-10.3-24-18.8-34.6-25.9 12-.9 24.5-1.3 37.3-1.3zm-131.1 95.2c-16.5-5.6-29.6-12.3-38.1-19.2-4.2-3.4-7.3-6.9-9.2-10.1s-2.7-6.1-2.7-9 .8-5.8 2.7-9c3.2-5.4 9.9-11.5 19.7-17.1 24.2 16 56.4 41.7 82.6 77.4-20.7-3.3-39.4-7.7-55-13zm76 15.7c-26.4-40.2-60.4-69.3-87.3-88.1 9.1-3.7 19.5-7.2 31.1-10.1 28.7 18.3 71.8 51.7 101.3 101-15.6-.4-30.7-1.3-45.1-2.8zm63.2 2.7c-27.4-49.6-67.4-84.3-98.1-105.7 8.6-1.6 17.7-3 27.2-4.2 30.1 18.4 79.3 51.8 110.5 107.8-12.7 1.2-25.9 1.9-39.6 2.1zm149.6-30.1c-15.5 8.7-38.1 16.4-65.2 21.7-8.9 1.8-18.2 3.2-28 4.5-6.1-11.7-12.9-22.5-20.1-32.4 13.4-1.6 38.3-3.9 66.3-3.9 18.3 0 37.9 1.1 56.6 3.9-2.9 2.2-6 4.2-9.6 6.2zm21.9-20.1c-22.7-4.3-46.8-5.7-68.9-5.7-38.1 0-70.1 4.2-77.6 5.2-6.9-8.2-14-15.7-21.2-22.6 17.8-3.3 49.5-8.1 86-8.1 23.5 0 48.9 2 73.6 7.5 3.1 2.8 5.4 5.5 6.9 8.1 1.9 3.2 2.7 6.1 2.7 9-.1 2.2-.5 4.3-1.5 6.6z"/></g></svg>