<svg height="256" viewBox="0 0 512 512" width="256" xmlns="http://www.w3.org/2000/svg"><g fill="#001a43"><path d="m210.094 95.156c9.844 0 19-3 26.594-8.141-8.031-11.109-12.828-24.719-12.828-39.438 0-14.734 4.797-28.328 12.828-39.453-7.594-5.124-16.75-8.124-26.594-8.124-26.281 0-47.578 21.297-47.578 47.578 0 26.266 21.297 47.578 47.578 47.578z"/><path d="m291.469 95.156c26.266 0 47.563-21.313 47.563-47.578-.001-26.281-21.298-47.578-47.563-47.578s-47.578 21.297-47.578 47.578c0 26.266 21.312 47.578 47.578 47.578z"/><path d="m473.281 240.25c-7.906 6.156-17.469 9.703-27.625 9.703 0 0 0 0-.016 0-12.219 0-24.094-5.078-32.563-13.938-38.734-40.484-94.531-62.813-157.078-62.844-62.547.031-118.344 22.359-157.078 62.859-8.469 8.844-20.344 13.922-32.578 13.922-10.141 0-19.719-3.547-27.625-9.703-20.25 32.094-31.984 69.063-33.078 108.188-3.359 120.172 102.641 139.547 141.032 151.047 20.859 6.25 79.297 12.516 109.328 12.516 30.047 0 88.469-6.266 109.328-12.516 38.391-11.5 144.391-30.875 141.031-151.047-1.078-39.124-12.828-76.093-33.078-108.187z"/><path d="m84.453 222.188c39.859-41.656 99.453-69 171.547-69.031 72.094.031 131.703 27.375 171.563 69.031 9.563 10 25.391 10.344 35.391.797 10.016-9.547 10.359-25.406.813-35.406-49.548-51.907-122.876-84.548-207.767-84.516-84.891-.031-158.203 32.609-207.75 84.516-9.563 10-9.203 25.859.797 35.406s25.828 9.203 35.406-.797z"/></g></svg>